# This file uses meters as units for non-parametric coordinates.

mtllib House_1.mtl
g default
v -1630.946456 384.830154 3600.585693
v -1249.218565 384.830154 3600.585693
v -1630.946456 3.102321 3600.585693
v -1249.218565 3.102321 3600.585693
v -1630.946456 27.440154 3600.585693
v -1249.218565 27.440154 3600.585693
v -1630.946456 27.440154 3536.091956
v -1249.218565 27.440154 3536.091956
v -1249.218565 3.102321 3536.091956
v -1630.946456 3.102321 3536.091956
vt 0.144125 0.238252
vt 0.095035 0.238245
vt 0.095054 0.108159
vt 0.144145 0.108167
vt 0.963172 0.238382
vt 0.914081 0.238376
vt 0.914101 0.108290
vt 0.963190 0.108297
vt 0.144152 0.059077
vt 0.914108 0.059200
vt 0.913966 0.959242
vt 0.144009 0.959118
vn 0.000000 -0.000000 -1.000000
vn 0.000000 -0.000000 -1.000000
vn 0.000000 -0.000000 -1.000000
vn 0.000000 -0.000000 -1.000000
vn 0.000000 -0.000000 -1.000000
vn 0.000000 -0.000000 -1.000000
vn 0.000000 -0.000000 -1.000000
vn 0.000000 -0.000000 -1.000000
vn 0.000000 1.000000 -0.000000
vn 0.000000 1.000000 -0.000000
vn 0.000000 1.000000 -0.000000
vn 0.000000 1.000000 -0.000000
vn 1.000000 0.000000 0.000000
vn 1.000000 0.000000 0.000000
vn 1.000000 0.000000 0.000000
vn 1.000000 0.000000 0.000000
vn -1.000000 0.000000 -0.000000
vn -1.000000 0.000000 -0.000000
vn -1.000000 0.000000 -0.000000
vn -1.000000 0.000000 -0.000000
s off
g Wall_Panel_step5 Small_Hut
usemtl initialShadingGroup
f 7/7/1 8/4/2 9/9/3 10/10/4
f 1/11/5 2/12/6 6/1/7 5/6/8
f 5/6/9 6/1/10 8/4/11 7/7/12
f 6/1/13 4/2/14 9/3/15 8/4/16
f 3/5/17 5/6/18 7/7/19 10/8/20
g default
v -1249.218629 384.830208 4364.041485
v -1630.946520 384.830208 4364.041485
v -1249.218629 3.102317 4364.041485
v -1630.946520 3.102317 4364.041485
vt 0.000000 0.000000
vt 1.000000 0.000000
vt 0.000000 1.000000
vt 1.000000 1.000000
vn -0.000000 0.000000 1.000000
vn -0.000000 0.000000 1.000000
vn -0.000000 0.000000 1.000000
vn -0.000000 0.000000 1.000000
s off
g Small_Hut Wall_panel4
usemtl initialShadingGroup
f 11/13/21 12/14/22 14/16/23 13/15/24
g default
v -1249.218611 384.830170 4364.041411
v -867.490766 384.830170 4364.041533
v -1249.218611 732.314301 3978.121123
v -867.490766 732.314301 3978.121123
v -1249.218611 384.830170 3600.585723
v -867.490766 384.830170 3600.585723
vt 0.000000 0.000000
vt 1.000010 0.000006
vt -0.000001 0.999997
vt 0.999995 1.000003
vt 0.000001 0.004401
vt 1.000000 0.004401
vt 0.999999 1.000000
vt 0.000000 1.000000
vt 0.011179 -2.947749
vt 2.601567 4.207144
vt -1.946871 1.851412
vn 0.000000 0.743145 0.669131
vn 0.000000 0.743145 0.669131
vn 0.000000 0.743145 0.669131
vn 0.000000 0.743145 0.669131
vn 0.000000 0.735784 -0.677216
vn 0.000000 0.735784 -0.677216
vn 0.000000 0.735784 -0.677216
vn 0.000000 0.735784 -0.677216
vn 1.000000 0.000000 0.000000
vn 1.000000 0.000000 0.000000
vn 1.000000 0.000000 0.000000
s off
g Small_Hut Roof_End_Left1
usemtl initialShadingGroup
f 15/17/25 16/18/26 18/20/27 17/19/28
f 17/21/29 18/22/30 20/23/31 19/24/32
f 16/25/33 20/26/34 18/27/35
g default
v -867.490721 384.830212 3982.313590
v -867.490721 384.830212 4364.041481
v -867.490721 3.102321 3982.313590
v -867.490721 3.102321 4364.041481
vt 0.000000 0.000000
vt 1.000000 0.000000
vt 0.000000 1.000000
vt 1.000000 1.000000
vn 1.000000 0.000000 -0.000000
vn 1.000000 0.000000 -0.000000
vn 1.000000 0.000000 -0.000000
vn 1.000000 0.000000 -0.000000
s off
g Small_Hut Wall_panel7
usemtl initialShadingGroup
f 21/28/36 22/29/37 24/31/38 23/30/39
g default
v -867.490724 384.830208 4364.041485
v -1249.218615 384.830208 4364.041485
v -867.490724 3.102317 4364.041485
v -1249.218615 3.102317 4364.041485
vt 0.000000 0.000000
vt 1.000000 0.000000
vt 0.000000 1.000000
vt 1.000000 1.000000
vn -0.000000 0.000000 1.000000
vn -0.000000 0.000000 1.000000
vn -0.000000 0.000000 1.000000
vn -0.000000 0.000000 1.000000
s off
g Small_Hut Wall_panel8
usemtl initialShadingGroup
f 25/32/40 26/33/41 28/35/42 27/34/43
g default
v -1249.218612 384.830212 3600.585723
v -867.490721 384.830212 3600.585723
v -1249.218612 3.102321 3600.585723
v -867.490721 3.102321 3600.585723
vt 0.000000 0.000000
vt 1.000000 0.000000
vt 0.000000 1.000000
vt 1.000000 1.000000
vn 0.000000 -0.000000 -1.000000
vn 0.000000 -0.000000 -1.000000
vn 0.000000 -0.000000 -1.000000
vn 0.000000 -0.000000 -1.000000
s off
g Small_Hut Wall_panel5
usemtl initialShadingGroup
f 29/36/44 30/37/45 32/39/46 31/38/47
g default
v -867.490721 384.830212 3600.585715
v -867.490721 384.830212 3982.313606
v -867.490721 3.102321 3600.585715
v -867.490721 3.102321 3982.313606
vt 0.000000 0.000000
vt 1.000000 0.000000
vt 0.000000 1.000000
vt 1.000000 1.000000
vn 1.000000 0.000000 -0.000000
vn 1.000000 0.000000 -0.000000
vn 1.000000 0.000000 -0.000000
vn 1.000000 0.000000 -0.000000
s off
g Small_Hut Wall_panel6
usemtl initialShadingGroup
f 33/40/48 34/41/49 36/43/50 35/42/51
g default
v -1540.946382 27.440156 3600.585726
v -1540.946382 27.440156 3590.585726
v -1540.946382 227.440160 3600.585726
v -1540.946382 227.440160 3590.585726
v -1630.946380 227.440160 3600.585726
v -1630.946380 227.440160 3590.585726
v -1630.946380 27.440156 3600.585726
v -1630.946380 27.440156 3590.585726
v -1626.046378 29.360177 3590.585726
v -1545.846383 29.360177 3590.585726
v -1626.046378 222.540166 3590.585726
v -1545.846383 222.540166 3590.585726
v -1626.046378 29.360177 3600.585726
v -1545.846383 29.360177 3600.585726
v -1545.846383 222.540166 3600.585726
v -1626.046378 222.540166 3600.585726
v -1626.046378 29.360177 3592.471777
v -1545.846383 29.360177 3592.471777
v -1626.046378 222.540166 3592.471777
v -1545.846383 222.540166 3592.471777
v -1626.046378 29.360177 3598.854361
v -1545.846383 29.360177 3598.854361
v -1545.846383 222.540166 3598.854361
v -1626.046378 222.540166 3598.854361
v -1615.546378 39.860178 3598.854361
v -1556.346381 39.860178 3598.854361
v -1556.346381 212.040166 3598.854361
v -1615.546378 212.040166 3598.854361
v -1615.546378 39.860178 3596.150473
v -1556.346381 39.860178 3596.150473
v -1556.346381 212.040166 3596.150473
v -1615.546378 212.040166 3596.150473
v -1562.316653 222.540166 3592.471777
v -1560.267711 29.360177 3592.471777
v -1576.394008 29.360177 3592.471777
v -1579.919250 222.540166 3592.471777
v -1600.197425 222.540166 3592.471777
v -1593.977401 29.360177 3592.471777
v -1612.071517 29.360186 3592.471777
v -1614.720420 222.540166 3592.471777
v -1563.998717 220.840169 3591.381415
v -1561.985839 31.060175 3591.381415
v -1574.724746 31.060175 3591.381415
v -1578.187945 220.840169 3591.381415
v -1558.585647 31.060175 3591.381415
v -1547.546384 31.060175 3591.381415
v -1560.598529 220.840169 3591.381415
v -1547.546384 220.840169 3591.381415
v -1601.843566 220.840169 3591.381415
v -1595.733016 31.060181 3591.381415
v -1610.394668 31.060181 3591.381415
v -1612.996947 220.840169 3591.381415
v -1578.125312 31.060175 3591.381415
v -1581.588511 220.840169 3591.381415
v -1592.331260 31.060175 3591.381415
v -1598.441810 220.840169 3591.381415
v -1613.794990 31.060181 3591.381415
v -1616.397269 220.840169 3591.381415
v -1624.346381 31.060181 3591.381415
v -1624.346381 220.840169 3591.381415
v -1625.742347 222.540166 3592.471777
vt 0.375000 0.000000
vt 0.625000 0.000000
vt 0.625000 0.250000
vt 0.375000 0.250000
vt 0.625000 0.500000
vt 0.375000 0.500000
vt 0.625000 0.750000
vt 0.375000 0.750000
vt 0.625000 1.000000
vt 0.375000 1.000000
vt 0.676341 0.250000
vt 0.669954 0.000000
vt 0.720223 0.000000
vt 0.731212 0.250000
vt 0.125000 0.000000
vt 0.375000 0.000000
vt 0.375000 0.250000
vt 0.125000 0.250000
vt 0.875000 0.000000
vt 0.875000 0.000000
vt 0.625000 0.000000
vt 0.875000 0.250000
vt 0.875000 0.250000
vt 0.625000 0.250000
vt 0.125000 0.000000
vt 0.375000 0.000000
vt 0.125000 0.000000
vt 0.375000 0.250000
vt 0.125000 0.250000
vt 0.125000 0.250000
vt 0.669954 0.000000
vt 0.625000 0.000000
vt 0.875000 0.250000
vt 0.875000 0.000000
vt 0.794424 0.250000
vt 0.853054 0.250000
vt 0.625000 0.250000
vt 0.375000 0.000000
vt 0.125000 0.000000
vt 0.375000 0.250000
vt 0.125000 0.250000
vt 0.375000 0.000000
vt 0.125000 0.000000
vt 0.375000 0.250000
vt 0.125000 0.250000
vt 0.625000 0.000000
vt 0.669954 0.000000
vt 0.676341 0.250000
vt 0.625000 0.250000
vt 0.794424 0.250000
vt 0.775034 0.000000
vt 0.831437 0.000000
vt 0.853054 0.250000
vt 0.731212 0.250000
vt 0.720223 0.000000
vt 0.775034 0.000000
vt 0.794424 0.250000
vt 0.853054 0.250000
vt 0.831437 0.000000
vt 0.875000 0.000000
vt 0.875000 0.250000
vt 0.676341 0.250000
vt 0.669954 0.000000
vt 0.669954 0.000000
vt 0.676341 0.250000
vt 0.669954 0.000000
vt 0.720223 0.000000
vt 0.720223 0.000000
vt 0.720223 0.000000
vt 0.731212 0.250000
vt 0.731212 0.250000
vt 0.731212 0.250000
vt 0.676341 0.250000
vt 0.669954 0.000000
vt 0.669954 0.000000
vt 0.625000 0.000000
vt 0.669954 0.000000
vt 0.676341 0.250000
vt 0.676341 0.250000
vt 0.676341 0.250000
vt 0.625000 0.250000
vt 0.775034 0.000000
vt 0.775034 0.000000
vt 0.794424 0.250000
vt 0.775034 0.000000
vt 0.831437 0.000000
vt 0.831437 0.000000
vt 0.853054 0.250000
vt 0.731212 0.250000
vt 0.720223 0.000000
vt 0.720223 0.000000
vt 0.731212 0.250000
vt 0.720223 0.000000
vt 0.775034 0.000000
vt 0.775034 0.000000
vt 0.775034 0.000000
vt 0.794424 0.250000
vt 0.731212 0.250000
vt 0.831437 0.000000
vt 0.853054 0.250000
vt 0.831437 0.000000
vt 0.874411 0.250000
vt 0.853054 0.250000
vt 0.676341 0.250000
vt 0.731212 0.250000
vt 0.731212 0.250000
vt 0.676341 0.250000
vt 0.720223 0.000000
vt 0.669954 0.000000
vt 0.775034 0.000000
vt 0.720223 0.000000
vt 0.775034 0.000000
vn 1.000000 0.000000 0.000000
vn 1.000000 0.000000 0.000000
vn 1.000000 0.000000 0.000000
vn 1.000000 0.000000 0.000000
vn 0.000000 1.000000 0.000000
vn 0.000000 1.000000 0.000000
vn 0.000000 1.000000 0.000000
vn 0.000000 1.000000 0.000000
vn -1.000000 0.000000 -0.000000
vn -1.000000 0.000000 -0.000000
vn -1.000000 0.000000 -0.000000
vn -1.000000 0.000000 -0.000000
vn 0.000000 -1.000000 0.000000
vn 0.000000 -1.000000 0.000000
vn 0.000000 -1.000000 0.000000
vn 0.000000 -1.000000 0.000000
vn 0.000000 0.000000 -1.000000
vn 0.000000 0.000000 -1.000000
vn 0.000000 0.000000 -1.000000
vn 0.000000 0.000000 -1.000000
vn -0.000000 0.000000 1.000000
vn -0.000000 0.000000 1.000000
vn -0.000000 0.000000 1.000000
vn -0.000000 0.000000 1.000000
vn 0.000000 -0.000000 -1.000000
vn 0.000000 -0.000000 -1.000000
vn 0.000000 -0.000000 -1.000000
vn 0.000000 -0.000000 -1.000000
vn 0.000000 -0.000000 -1.000000
vn 0.000000 0.000000 -1.000000
vn 0.000000 0.000000 -1.000000
vn 0.000000 -0.000000 -1.000000
vn 0.000000 0.000000 -1.000000
vn 0.000000 0.000000 -1.000000
vn 0.000000 0.000000 -1.000000
vn 0.000000 0.000000 -1.000000
vn 0.000000 0.000000 -1.000000
vn 0.000000 -0.000000 -1.000000
vn 0.000000 -0.000000 -1.000000
vn 0.000000 0.000000 -1.000000
vn -0.000000 0.000000 1.000000
vn -0.000000 0.000000 1.000000
vn -0.000000 0.000000 1.000000
vn -0.000000 0.000000 1.000000
vn -0.000000 0.000000 1.000000
vn -0.000000 0.000000 1.000000
vn -0.000000 0.000000 1.000000
vn -0.000000 0.000000 1.000000
vn -0.000000 0.000000 1.000000
vn -0.000000 0.000000 1.000000
vn -0.000000 0.000000 1.000000
vn -0.000000 0.000000 1.000000
vn -0.000000 0.000000 1.000000
vn -0.000000 0.000000 1.000000
vn -0.000000 0.000000 1.000000
vn -0.000000 0.000000 1.000000
vn 0.000000 1.000000 0.000000
vn 0.000000 1.000000 0.000000
vn 0.000000 1.000000 0.000000
vn 1.000000 0.000000 0.000000
vn 1.000000 0.000000 0.000000
vn 1.000000 0.000000 0.000000
vn 1.000000 0.000000 0.000000
vn 0.000000 -1.000000 0.000000
vn 0.000000 -1.000000 0.000000
vn 0.000000 -1.000000 0.000000
vn -1.000000 0.000000 -0.000000
vn -1.000000 0.000000 -0.000000
vn -1.000000 0.000000 -0.000000
vn -1.000000 0.000000 -0.000000
vn 0.000000 1.000000 0.000000
vn 0.000000 1.000000 0.000000
vn 0.000000 1.000000 0.000000
vn 0.000000 1.000000 0.000000
vn -1.000000 0.000000 -0.000000
vn -1.000000 0.000000 -0.000000
vn -1.000000 0.000000 -0.000000
vn -1.000000 0.000000 -0.000000
vn 0.000000 -1.000000 0.000000
vn 0.000000 -1.000000 0.000000
vn 0.000000 -1.000000 0.000000
vn 0.000000 -1.000000 0.000000
vn 1.000000 0.000000 0.000000
vn 1.000000 0.000000 0.000000
vn 1.000000 0.000000 0.000000
vn 1.000000 0.000000 0.000000
vn -0.000000 0.000000 1.000000
vn -0.000000 0.000000 1.000000
vn -0.000000 0.000000 1.000000
vn -0.000000 0.000000 1.000000
vn -0.000000 0.000000 1.000000
vn -0.000000 0.000000 1.000000
vn -0.000000 0.000000 1.000000
vn -0.000000 0.000000 1.000000
vn -0.000000 0.000000 1.000000
vn -0.000000 0.000000 1.000000
vn -0.000000 0.000000 1.000000
vn -0.000000 0.000000 1.000000
vn -0.000000 0.000000 1.000000
vn -0.000000 0.000000 1.000000
vn -0.000000 0.000000 1.000000
vn -0.000000 0.000000 1.000000
vn 0.000000 1.000000 0.000000
vn 0.000000 1.000000 0.000000
vn 0.000000 1.000000 0.000000
vn 0.000000 1.000000 0.000000
vn -1.000000 0.000000 -0.000000
vn -1.000000 0.000000 -0.000000
vn -1.000000 0.000000 -0.000000
vn -1.000000 0.000000 -0.000000
vn 0.000000 -1.000000 0.000000
vn 0.000000 -1.000000 0.000000
vn 0.000000 -1.000000 0.000000
vn 0.000000 -1.000000 0.000000
vn 1.000000 0.000000 0.000000
vn 1.000000 0.000000 0.000000
vn 1.000000 0.000000 0.000000
vn 1.000000 0.000000 0.000000
vn 0.000000 0.000000 -1.000000
vn 0.000000 0.000000 -1.000000
vn 0.000000 0.000000 -1.000000
vn 0.000000 0.000000 -1.000000
vn 0.000000 0.000000 -1.000000
vn 0.000000 0.000000 -1.000000
vn 0.000000 0.000000 -1.000000
vn 0.000000 0.000000 -1.000000
vn 0.000000 0.000000 -1.000000
vn 0.000000 0.000000 -1.000000
vn 0.000000 0.000000 -1.000000
vn 0.000000 0.000000 -1.000000
vn 0.000000 0.000000 -1.000000
vn 0.000000 0.000000 -1.000000
vn 0.000000 0.000000 -1.000000
vn 0.000000 0.000000 -1.000000
vn 0.539852 0.005726 -0.841740
vn 0.539852 0.005726 -0.841740
vn 0.539852 0.005726 -0.841740
vn 0.539853 0.005726 -0.841740
vn 0.000000 -0.539884 -0.841740
vn 0.000000 -0.539884 -0.841740
vn 0.000000 -0.539884 -0.841739
vn 0.000000 -0.539884 -0.841739
vn -0.539793 -0.009850 -0.841740
vn -0.539793 -0.009850 -0.841740
vn -0.539794 -0.009850 -0.841740
vn -0.539794 -0.009850 -0.841740
vn 0.000000 0.539884 -0.841739
vn 0.000000 0.539884 -0.841739
vn 0.000000 0.539884 -0.841739
vn 0.000000 0.539884 -0.841739
vn 0.000000 -0.539884 -0.841739
vn 0.000000 -0.539884 -0.841739
vn 0.000000 -0.539884 -0.841740
vn 0.000000 -0.539884 -0.841739
vn -0.539853 -0.005726 -0.841740
vn -0.539853 -0.005726 -0.841740
vn -0.539853 -0.005726 -0.841740
vn -0.539853 -0.005726 -0.841740
vn 0.000000 0.539884 -0.841740
vn 0.000000 0.539884 -0.841739
vn 0.000000 0.539884 -0.841740
vn 0.000000 0.539884 -0.841739
vn 0.539883 0.000000 -0.841740
vn 0.539883 0.000000 -0.841740
vn 0.539883 0.000000 -0.841740
vn 0.539883 0.000000 -0.841740
vn 0.539604 0.017374 -0.841739
vn 0.539604 0.017374 -0.841739
vn 0.539604 0.017374 -0.841739
vn 0.539604 0.017374 -0.841740
vn 0.000000 -0.539883 -0.841740
vn 0.000000 -0.539883 -0.841740
vn 0.000000 -0.539883 -0.841740
vn 0.000000 -0.539883 -0.841740
vn -0.539832 -0.007402 -0.841740
vn -0.539832 -0.007402 -0.841740
vn -0.539832 -0.007402 -0.841740
vn -0.539832 -0.007402 -0.841740
vn 0.000000 0.539884 -0.841739
vn 0.000000 0.539884 -0.841739
vn 0.000000 0.539884 -0.841739
vn 0.000000 0.539884 -0.841739
vn 0.539793 0.009850 -0.841740
vn 0.539793 0.009850 -0.841740
vn 0.539793 0.009850 -0.841740
vn 0.539793 0.009850 -0.841740
vn 0.000000 -0.539884 -0.841739
vn 0.000000 -0.539884 -0.841739
vn 0.000000 -0.539884 -0.841740
vn 0.000000 -0.539884 -0.841739
vn -0.539604 -0.017374 -0.841739
vn -0.539604 -0.017374 -0.841740
vn -0.539604 -0.017374 -0.841740
vn -0.539604 -0.017374 -0.841739
vn 0.000000 0.539884 -0.841739
vn 0.000000 0.539884 -0.841739
vn 0.000000 0.539884 -0.841739
vn 0.000000 0.539884 -0.841739
vn 0.539832 0.007402 -0.841740
vn 0.539832 0.007402 -0.841740
vn 0.539832 0.007402 -0.841740
vn 0.539832 0.007402 -0.841740
vn 0.000000 -0.539883 -0.841740
vn 0.000000 -0.539883 -0.841740
vn 0.000000 -0.539883 -0.841740
vn 0.000000 -0.539883 -0.841740
vn -0.539884 0.000000 -0.841740
vn -0.539884 0.000000 -0.841740
vn -0.539884 0.000000 -0.841740
vn -0.539884 0.000000 -0.841740
vn 0.000000 0.539883 -0.841740
vn 0.000000 0.539884 -0.841740
vn 0.000000 0.539884 -0.841739
vn 0.000000 0.539884 -0.841740
vn 0.000000 0.539884 -0.841740
vn 0.000000 0.539884 -0.841740
vn 0.000000 0.539884 -0.841740
vn 0.000000 0.539884 -0.841740
vn 0.000000 0.539884 -0.841739
vn 0.000000 -1.000000 0.000000
vn 0.000000 -1.000000 0.000000
vn 0.000000 -1.000000 0.000000
vn 0.000000 -1.000000 0.000000
vn 0.000000 -1.000000 0.000000
vn 0.000000 -1.000000 0.000000
vn 0.000000 -1.000000 0.000000
vn 0.000000 -1.000000 0.000000
vn 0.000000 -1.000000 0.000000
vn 0.000000 -1.000000 0.000000
vn 0.000000 -1.000000 0.000000
vn 0.000000 -1.000000 0.000000
vn 0.000000 -1.000000 0.000000
vn 0.000000 -1.000000 0.000000
vn 0.000000 1.000000 0.000000
vn 0.000000 1.000000 0.000000
vn 0.000000 1.000000 0.000000
vn 0.000001 1.000000 -0.000007
vn -0.000001 1.000000 -0.000000
vn -0.000001 1.000000 -0.000000
vn 0.000000 1.000000 0.000000
vn -0.000001 1.000000 -0.000000
vn 0.000000 1.000000 0.000000
vn 0.000000 1.000000 0.000000
vn 0.000000 1.000000 0.000000
vn -0.000001 1.000000 -0.000000
vn 0.000001 1.000000 -0.000007
s off
g Door_Standed1 Parts_Group
usemtl Doors:initialShadingGroup
f 37/44/52 38/45/53 40/46/54 39/47/55
f 39/47/56 40/46/57 42/48/58 41/49/59
f 41/49/60 42/48/61 44/50/62 43/51/63
f 43/51/64 44/50/65 38/52/66 37/53/67
f 77/54/68 78/55/69 79/56/70 80/57/71
f 65/58/72 66/59/73 67/60/74 68/61/75
f 38/45/76 44/62/77 45/63/78 46/64/79
f 44/62/80 42/65/81 47/66/82 45/63/83
f 42/65/84 40/46/85 48/67/86 47/66/87
f 40/46/88 38/45/89 46/64/90 48/67/91
f 43/68/92 37/44/93 50/69/94 49/70/95
f 37/44/96 39/47/97 51/71/98 50/69/99
f 39/47/100 41/72/101 52/73/102 51/71/103
f 41/72/104 43/68/105 49/70/106 52/73/107
f 46/64/108 70/74/109 54/75/110
f 45/63/111 47/66/112 55/76/113 53/77/114
f 47/66/115 73/78/116 76/79/117
f 48/67/118 46/64/119 54/75/120 56/80/121
f 49/70/122 50/69/123 58/81/124 57/82/125
f 50/69/126 51/71/127 59/83/128 58/81/129
f 51/71/130 52/73/131 60/84/132 59/83/133
f 52/73/134 49/70/135 57/82/136 60/84/137
f 57/82/138 58/81/139 62/85/140 61/86/141
f 58/81/142 59/83/143 63/87/144 62/85/145
f 59/83/146 60/84/147 64/88/148 63/87/149
f 60/84/150 57/82/151 61/86/152 64/88/153
f 61/86/154 62/85/155 66/59/156 65/58/157
f 62/85/158 63/87/159 67/60/160 66/59/161
f 63/87/162 64/88/163 68/61/164 67/60/165
f 64/88/166 61/86/167 65/58/168 68/61/169
f 82/89/170 81/90/171 83/91/172 84/92/173
f 85/93/174 86/94/175 87/95/176 88/96/177
f 90/97/178 89/98/179 91/99/180 92/100/181
f 94/101/182 93/102/183 95/103/184 96/104/185
f 69/105/186 70/106/187 78/107/188 77/108/189
f 70/109/190 71/110/191 79/111/192 78/107/193
f 71/112/194 72/113/195 80/114/196 79/111/197
f 72/115/198 69/116/199 77/108/200 80/114/201
f 54/75/202 70/117/203 81/118/204 82/119/205
f 70/120/206 69/121/207 83/122/208 81/118/209
f 69/123/210 56/80/211 84/124/212 83/122/213
f 56/80/214 54/75/215 82/119/216 84/124/217
f 73/78/218 74/125/219 86/126/220 85/127/221
f 74/128/222 75/129/223 87/130/224 86/126/225
f 75/129/226 76/79/227 88/131/228 87/130/229
f 76/79/230 73/78/231 85/127/232 88/131/233
f 72/132/234 71/133/235 89/134/236 90/135/237
f 71/136/238 74/137/239 91/138/240 89/134/241
f 74/139/242 73/78/243 92/140/244 91/138/245
f 73/78/246 72/141/247 90/135/248 92/140/249
f 76/79/250 75/129/251 93/142/252 94/143/253
f 75/129/254 53/77/255 95/103/256 93/144/257
f 53/77/258 55/76/259 96/104/260 95/103/261
f 55/76/262 97/145/263 96/104/264
f 76/79/265 94/146/266 97/145/267
f 97/145/268 94/146/269 96/104/270
f 47/66/271 76/79/272 97/145/273 55/76/274
f 69/147/275 48/67/276 56/80/277
f 47/66/278 48/67/279 72/148/280 73/78/281
f 72/149/282 48/67/283 69/150/284
f 46/64/285 71/151/286 70/152/287
f 75/129/288 45/63/289 53/77/290
f 46/64/291 45/63/292 74/153/293 71/154/294
f 74/155/295 45/63/296 75/129/297
g default
v -1630.946455 384.830190 4364.041411
v -1630.946455 732.314321 3978.121153
v -1630.946455 384.830190 3600.585723
v -1249.218550 384.830190 4364.041411
v -1249.218550 732.314321 3978.121153
v -1249.218550 384.830190 3600.585723
vt -0.322467 -3.929636
vt 3.130687 -0.070436
vt -0.322466 3.704883
vt -0.000001 -0.000000
vt 1.000000 0.000000
vt 0.999999 0.999999
vt 0.000000 0.999998
vt -0.000000 0.004400
vt 1.000001 0.004401
vt 1.000000 1.000000
vt -0.000001 0.999999
vn -1.000000 0.000000 0.000000
vn -1.000000 0.000000 0.000000
vn -1.000000 0.000000 0.000000
vn 0.000000 0.743145 0.669131
vn 0.000000 0.743145 0.669131
vn 0.000000 0.743145 0.669131
vn 0.000000 0.743145 0.669131
vn 0.000000 0.735784 -0.677216
vn 0.000000 0.735784 -0.677216
vn 0.000000 0.735784 -0.677216
vn 0.000000 0.735784 -0.677216
s off
g Small_Hut Roof_End1
usemtl initialShadingGroup
f 98/156/298 99/157/299 100/158/300
f 98/159/301 101/160/302 102/161/303 99/162/304
f 99/163/305 102/164/306 103/165/307 100/166/308
g default
v -1630.946529 384.830208 3982.313609
v -1630.946529 384.830208 3600.585718
v -1630.946529 3.102317 3982.313609
v -1630.946529 3.102317 3600.585718
vt 0.000000 0.000000
vt 1.000000 0.000000
vt 0.000000 1.000000
vt 1.000000 1.000000
vn -1.000000 0.000000 -0.000000
vn -1.000000 0.000000 -0.000000
vn -1.000000 0.000000 -0.000000
vn -1.000000 0.000000 -0.000000
s off
g Small_Hut Wall_panel2
usemtl initialShadingGroup
f 104/167/309 105/168/310 107/170/311 106/169/312
g default
v -1630.946529 384.830208 4364.041484
v -1630.946529 384.830208 3982.313593
v -1630.946529 3.102317 4364.041484
v -1630.946529 3.102317 3982.313593
vt 0.000000 0.000000
vt 1.000000 0.000000
vt 0.000000 1.000000
vt 1.000000 1.000000
vn -1.000000 0.000000 -0.000000
vn -1.000000 0.000000 -0.000000
vn -1.000000 0.000000 -0.000000
vn -1.000000 0.000000 -0.000000
s off
g Small_Hut Wall_panel3
usemtl initialShadingGroup
f 108/171/313 109/172/314 111/174/315 110/173/316
