# This file uses meters as units for non-parametric coordinates.

mtllib Tombstone_Slant.mtl
g default
v 150.813178 8.056370 -131.414656
v 180.876427 8.499655 -131.414656
v 150.813178 35.839140 -131.414656
v 156.214873 35.662787 -131.414656
v 150.813178 35.839140 -206.414656
v 156.214873 35.662787 -206.414656
v 150.813178 8.056370 -206.414656
v 180.876427 8.499655 -206.414656
v 150.813178 -5.560670 -206.414656
v 180.813178 -5.560670 -206.414656
v 180.813178 -5.560670 -131.414656
v 150.813178 -5.560670 -131.414656
vt 0.733057 0.592304
vt 0.733057 0.001841
vt 0.951786 0.001841
vt 0.951786 0.592304
vt 0.625852 0.592304
vt 0.625852 0.001841
vt 0.405225 0.001841
vt 0.405225 0.592304
vt 0.294530 0.592304
vt 0.294530 0.001841
vt 0.619076 0.001841
vt 0.619076 0.592304
vt 0.001992 0.001841
vt 0.044519 0.001841
vt 0.044519 0.592304
vt 0.001992 0.592304
vt 0.050911 0.001841
vt 0.287096 0.001841
vt 0.287096 0.592304
vt 0.050911 0.592304
vt 0.761325 0.703501
vt 0.998008 0.706991
vt 0.803851 0.920842
vt 0.761325 0.922230
vt 0.761325 0.596296
vt 0.997510 0.596296
vt 0.518506 0.596296
vt 0.561033 0.597684
vt 0.755189 0.811536
vt 0.518506 0.815026
vt 0.754691 0.922230
vt 0.518506 0.922230
vn 0.000000 0.000000 1.000000
vn 0.000000 0.000000 1.000000
vn 0.000000 0.000000 1.000000
vn 0.000000 0.000000 1.000000
vn 0.032630 0.999467 0.000000
vn 0.032630 0.999467 0.000000
vn 0.032630 0.999467 0.000000
vn 0.032630 0.999467 0.000000
vn 0.000000 0.000000 -1.000000
vn 0.000000 0.000000 -1.000000
vn 0.000000 0.000000 -1.000000
vn 0.000000 0.000000 -1.000000
vn 0.000000 -1.000000 0.000000
vn 0.000000 -1.000000 0.000000
vn 0.000000 -1.000000 0.000000
vn 0.000000 -1.000000 0.000000
vn 0.858738 0.512415 0.000000
vn 0.858738 0.512415 0.000000
vn 0.740377 0.672192 0.000000
vn 0.740377 0.672192 0.000000
vn -1.000000 0.000000 0.000000
vn -1.000000 0.000000 0.000000
vn -1.000000 0.000000 0.000000
vn -1.000000 0.000000 0.000000
vn 0.000000 0.000000 -1.000000
vn 0.000000 0.000000 -1.000000
vn 0.999990 -0.004498 0.000000
vn 0.999990 -0.004498 0.000000
vn 0.000000 0.000000 1.000000
vn 0.000000 0.000000 1.000000
vn -1.000000 0.000000 0.000000
vn -1.000000 0.000000 0.000000
s 1
g HeadStone_Slant
usemtl initialShadingGroup
f 1/21/1 2/22/2 4/23/3 3/24/4
s off
f 3/13/5 4/14/6 6/15/7 5/16/8
s 2
f 5/27/9 6/28/10 8/29/11 7/30/12
s off
f 9/17/13 10/18/14 11/19/15 12/20/16
s 3
f 2/8/17 8/7/18 6/11/19 4/12/20
s 4
f 7/1/21 1/2/22 3/3/23 5/4/24
s 2
f 7/30/12 8/29/11 10/31/25 9/32/26
s 3
f 8/7/18 2/8/17 11/9/27 10/10/28
s 1
f 2/22/2 1/21/1 12/25/29 11/26/30
s 4
f 1/2/22 7/1/21 9/5/31 12/6/32
