# This file uses meters as units for non-parametric coordinates.

mtllib Tombstone_Slant.mtl
g default
v 150.813178 8.056370 -131.414656
v 180.876427 8.499655 -131.414656
v 150.813178 35.839140 -131.414656
v 156.214873 35.662787 -131.414656
v 150.813178 35.839140 -206.414656
v 156.214873 35.662787 -206.414656
v 150.813178 8.056370 -206.414656
v 180.876427 8.499655 -206.414656
v 150.813178 -5.560670 -206.414656
v 180.813178 -5.560670 -206.414656
v 180.813178 -5.560670 -131.414656
v 150.813178 -5.560670 -131.414656
vt 0.375000 0.000000
vt 0.625000 0.000000
vt 0.375000 0.250000
vt 0.625000 0.250000
vt 0.375000 0.500000
vt 0.625000 0.500000
vt 0.375000 0.750000
vt 0.625000 0.750000
vt 0.375000 1.000000
vt 0.625000 1.000000
vt 0.875000 0.000000
vt 0.875000 0.250000
vt 0.125000 0.000000
vt 0.125000 0.250000
vt 0.375000 0.750000
vt 0.625000 0.750000
vt 0.625000 1.000000
vt 0.375000 1.000000
vn 0.000000 0.000000 1.000000
vn 0.000000 0.000000 1.000000
vn 0.000000 0.000000 1.000000
vn 0.000000 0.000000 1.000000
vn 0.032630 0.999467 0.000000
vn 0.032630 0.999467 0.000000
vn 0.032630 0.999467 0.000000
vn 0.032630 0.999467 0.000000
vn 0.000000 0.000000 -1.000000
vn 0.000000 0.000000 -1.000000
vn 0.000000 0.000000 -1.000000
vn 0.000000 0.000000 -1.000000
vn 0.000000 -1.000000 0.000000
vn 0.000000 -1.000000 0.000000
vn 0.000000 -1.000000 0.000000
vn 0.000000 -1.000000 0.000000
vn 0.858738 0.512415 0.000000
vn 0.858738 0.512415 0.000000
vn 0.740377 0.672192 0.000000
vn 0.740377 0.672192 0.000000
vn -1.000000 0.000000 0.000000
vn -1.000000 0.000000 0.000000
vn -1.000000 0.000000 0.000000
vn -1.000000 0.000000 0.000000
vn 0.000000 0.000000 -1.000000
vn 0.000000 0.000000 -1.000000
vn 0.999990 -0.004498 0.000000
vn 0.999990 -0.004498 0.000000
vn 0.000000 0.000000 1.000000
vn 0.000000 0.000000 1.000000
vn -1.000000 0.000000 0.000000
vn -1.000000 0.000000 0.000000
s 1
g HeadStone_Slant
usemtl initialShadingGroup
f 1/1/1 2/2/2 4/4/3 3/3/4
s off
f 3/3/5 4/4/6 6/6/7 5/5/8
s 2
f 5/5/9 6/6/10 8/8/11 7/7/12
s off
f 9/15/13 10/16/14 11/17/15 12/18/16
s 3
f 2/2/17 8/11/18 6/12/19 4/4/20
s 4
f 7/13/21 1/1/22 3/3/23 5/14/24
s 2
f 7/7/12 8/8/11 10/16/25 9/15/26
s 3
f 8/8/18 2/10/17 11/17/27 10/16/28
s 1
f 2/10/2 1/9/1 12/18/29 11/17/30
s 4
f 1/9/22 7/7/21 9/15/31 12/18/32
